HIERARCHY
ROOT Hips
{
	OFFSET -335.845001 -574.368103 89.378365
	CHANNELS 6 Xposition Yposition Zposition Zrotation Yrotation Xrotation
	JOINT Spine
	{
		OFFSET 0.000000 2.080078 8.814247
		CHANNELS 6 Xposition Yposition Zposition Zrotation Yrotation Xrotation
		JOINT Spine1
		{
			OFFSET 0.000000 0.000000 8.844139
			CHANNELS 6 Xposition Yposition Zposition Zrotation Yrotation Xrotation
			JOINT Spine2
			{
				OFFSET 0.000000 0.000000 11.682266
				CHANNELS 6 Xposition Yposition Zposition Zrotation Yrotation Xrotation
				JOINT Spine3
				{
					OFFSET 0.000000 0.000000 11.746696
					CHANNELS 6 Xposition Yposition Zposition Zrotation Yrotation Xrotation
					JOINT Neck
					{
						OFFSET 0.000000 0.000000 17.658264
						CHANNELS 6 Xposition Yposition Zposition Zrotation Yrotation Xrotation
						JOINT Neck1
						{
							OFFSET 0.000000 0.000000 5.101517
							CHANNELS 6 Xposition Yposition Zposition Zrotation Yrotation Xrotation
							JOINT Head
							{
								OFFSET 0.000000 0.000000 5.101517
								CHANNELS 6 Xposition Yposition Zposition Zrotation Yrotation Xrotation
								JOINT HeadEnd
								{
									OFFSET 0.000000 0.000000 11.655090
									CHANNELS 6 Xposition Yposition Zposition Zrotation Yrotation Xrotation
									End Site
									{
										OFFSET 0.000000 0.000000 0.100006
									}
								}
							}
						}
					}
					JOINT RightShoulder
					{
						OFFSET -2.625397 0.000000 11.175217
						CHANNELS 6 Xposition Yposition Zposition Zrotation Yrotation Xrotation
						JOINT RightArm
						{
							OFFSET 0.000000 0.000000 10.434708
							CHANNELS 6 Xposition Yposition Zposition Zrotation Yrotation Xrotation
							JOINT RightForeArm
							{
								OFFSET 0.000000 0.000000 29.628418
								CHANNELS 6 Xposition Yposition Zposition Zrotation Yrotation Xrotation
								JOINT RightHand
								{
									OFFSET 0.000000 0.000000 22.857605
									CHANNELS 6 Xposition Yposition Zposition Zrotation Yrotation Xrotation
									JOINT RightHandThumb1
									{
										OFFSET -2.867310 -2.944275 3.959564
										CHANNELS 6 Xposition Yposition Zposition Zrotation Yrotation Xrotation
										JOINT RightHandThumb2
										{
											OFFSET 0.000000 0.000000 3.350403
											CHANNELS 6 Xposition Yposition Zposition Zrotation Yrotation Xrotation
											JOINT RightHandThumb3
											{
												OFFSET 0.000000 0.000000 3.756516
												CHANNELS 6 Xposition Yposition Zposition Zrotation Yrotation Xrotation
												JOINT RightHandThumb4
												{
													OFFSET 0.000000 0.000000 3.147339
													CHANNELS 6 Xposition Yposition Zposition Zrotation Yrotation Xrotation
													End Site
													{
														OFFSET 0.000000 0.000000 0.100006
													}
												}
											}
										}
									}
									JOINT RightHandIndex1
									{
										OFFSET -0.086761 -2.345276 10.030899
										CHANNELS 6 Xposition Yposition Zposition Zrotation Yrotation Xrotation
										JOINT RightHandIndex2
										{
											OFFSET 0.000000 0.000000 4.061096
											CHANNELS 6 Xposition Yposition Zposition Zrotation Yrotation Xrotation
											JOINT RightHandIndex3
											{
												OFFSET 0.000000 0.000000 3.248871
												CHANNELS 6 Xposition Yposition Zposition Zrotation Yrotation Xrotation
												JOINT RightHandIndex4
												{
													OFFSET 0.000000 0.000000 2.639709
													CHANNELS 6 Xposition Yposition Zposition Zrotation Yrotation Xrotation
													End Site
													{
														OFFSET 0.000000 0.000000 0.100006
													}
												}
											}
										}
									}
									JOINT RightHandMiddle1
									{
										OFFSET 0.104095 -0.006775 9.502945
										CHANNELS 6 Xposition Yposition Zposition Zrotation Yrotation Xrotation
										JOINT RightHandMiddle2
										{
											OFFSET 0.000000 0.000000 4.568726
											CHANNELS 6 Xposition Yposition Zposition Zrotation Yrotation Xrotation
											JOINT RightHandMiddle3
											{
												OFFSET 0.000000 0.000000 3.654984
												CHANNELS 6 Xposition Yposition Zposition Zrotation Yrotation Xrotation
												JOINT RightHandMiddle4
												{
													OFFSET 0.000000 0.000000 2.741241
													CHANNELS 6 Xposition Yposition Zposition Zrotation Yrotation Xrotation
													End Site
													{
														OFFSET 0.000000 0.000000 0.100006
													}
												}
											}
										}
									}
									JOINT RightHandRing1
									{
										OFFSET 0.086761 2.267456 8.921707
										CHANNELS 6 Xposition Yposition Zposition Zrotation Yrotation Xrotation
										JOINT RightHandRing2
										{
											OFFSET 0.000000 0.000000 4.061096
											CHANNELS 6 Xposition Yposition Zposition Zrotation Yrotation Xrotation
											JOINT RightHandRing3
											{
												OFFSET 0.000000 0.000000 3.654984
												CHANNELS 6 Xposition Yposition Zposition Zrotation Yrotation Xrotation
												JOINT RightHandRing4
												{
													OFFSET 0.000000 0.000000 2.741241
													CHANNELS 6 Xposition Yposition Zposition Zrotation Yrotation Xrotation
													End Site
													{
														OFFSET 0.000000 0.000000 0.100006
													}
												}
											}
										}
									}
									JOINT RightHandPinky1
									{
										OFFSET -0.173492 4.467224 7.976990
										CHANNELS 6 Xposition Yposition Zposition Zrotation Yrotation Xrotation
										JOINT RightHandPinky2
										{
											OFFSET 0.000000 0.000000 3.350403
											CHANNELS 6 Xposition Yposition Zposition Zrotation Yrotation Xrotation
											JOINT RightHandPinky3
											{
												OFFSET 0.000000 0.000000 2.842758
												CHANNELS 6 Xposition Yposition Zposition Zrotation Yrotation Xrotation
												JOINT RightHandPinky4
												{
													OFFSET 0.000000 0.000000 2.639709
													CHANNELS 6 Xposition Yposition Zposition Zrotation Yrotation Xrotation
													End Site
													{
														OFFSET 0.000000 0.000000 0.100006
													}
												}
											}
										}
									}
									JOINT RightForeArmEnd
									{
										OFFSET 0.000000 0.000000 0.000000
										CHANNELS 6 Xposition Yposition Zposition Zrotation Yrotation Xrotation
										End Site
										{
											OFFSET 0.000000 0.000000 0.100006
										}
									}
								}
								JOINT RightArmEnd
								{
									OFFSET 0.000000 0.000000 0.000000
									CHANNELS 6 Xposition Yposition Zposition Zrotation Yrotation Xrotation
									End Site
									{
										OFFSET 0.000000 0.000000 0.100006
									}
								}
							}
						}
					}
					JOINT LeftShoulder
					{
						OFFSET 2.625397 0.000000 11.175217
						CHANNELS 6 Xposition Yposition Zposition Zrotation Yrotation Xrotation
						JOINT LeftArm
						{
							OFFSET 0.000000 0.000000 10.813629
							CHANNELS 6 Xposition Yposition Zposition Zrotation Yrotation Xrotation
							JOINT LeftForeArm
							{
								OFFSET 0.000000 0.000000 28.724777
								CHANNELS 6 Xposition Yposition Zposition Zrotation Yrotation Xrotation
								JOINT LeftHand
								{
									OFFSET 0.644379 0.328857 25.716171
									CHANNELS 6 Xposition Yposition Zposition Zrotation Yrotation Xrotation
									JOINT LeftHandThumb1
									{
										OFFSET 2.867310 -2.944275 3.959564
										CHANNELS 6 Xposition Yposition Zposition Zrotation Yrotation Xrotation
										JOINT LeftHandThumb2
										{
											OFFSET 0.000000 0.000000 3.350403
											CHANNELS 6 Xposition Yposition Zposition Zrotation Yrotation Xrotation
											JOINT LeftHandThumb3
											{
												OFFSET 0.000000 0.000000 3.756516
												CHANNELS 6 Xposition Yposition Zposition Zrotation Yrotation Xrotation
												JOINT LeftHandThumb4
												{
													OFFSET 0.000000 0.000000 3.100006
													CHANNELS 6 Xposition Yposition Zposition Zrotation Yrotation Xrotation
													End Site
													{
														OFFSET 0.000000 0.000000 0.100006
													}
												}
											}
										}
									}
									JOINT LeftHandIndex1
									{
										OFFSET 0.086761 -2.345276 10.030899
										CHANNELS 6 Xposition Yposition Zposition Zrotation Yrotation Xrotation
										JOINT LeftHandIndex2
										{
											OFFSET 0.000000 0.000000 4.061096
											CHANNELS 6 Xposition Yposition Zposition Zrotation Yrotation Xrotation
											JOINT LeftHandIndex3
											{
												OFFSET 0.000000 0.000000 3.248871
												CHANNELS 6 Xposition Yposition Zposition Zrotation Yrotation Xrotation
												JOINT LeftHandIndex4
												{
													OFFSET 0.000000 0.000000 2.639709
													CHANNELS 6 Xposition Yposition Zposition Zrotation Yrotation Xrotation
													End Site
													{
														OFFSET 0.000000 0.000000 0.100006
													}
												}
											}
										}
									}
									JOINT LeftHandMiddle1
									{
										OFFSET -0.104095 -0.006775 9.502945
										CHANNELS 6 Xposition Yposition Zposition Zrotation Yrotation Xrotation
										JOINT LeftHandMiddle2
										{
											OFFSET 0.000000 0.000000 4.568726
											CHANNELS 6 Xposition Yposition Zposition Zrotation Yrotation Xrotation
											JOINT LeftHandMiddle3
											{
												OFFSET 0.000000 0.000000 3.654984
												CHANNELS 6 Xposition Yposition Zposition Zrotation Yrotation Xrotation
												JOINT LeftHandMiddle4
												{
													OFFSET 0.000000 0.000000 2.741241
													CHANNELS 6 Xposition Yposition Zposition Zrotation Yrotation Xrotation
													End Site
													{
														OFFSET 0.000000 0.000000 0.100006
													}
												}
											}
										}
									}
									JOINT LeftHandRing1
									{
										OFFSET -0.086761 2.267456 8.921707
										CHANNELS 6 Xposition Yposition Zposition Zrotation Yrotation Xrotation
										JOINT LeftHandRing2
										{
											OFFSET 0.000000 0.000000 4.061096
											CHANNELS 6 Xposition Yposition Zposition Zrotation Yrotation Xrotation
											JOINT LeftHandRing3
											{
												OFFSET 0.000000 0.000000 3.654984
												CHANNELS 6 Xposition Yposition Zposition Zrotation Yrotation Xrotation
												JOINT LeftHandRing4
												{
													OFFSET 0.000000 0.000000 2.741241
													CHANNELS 6 Xposition Yposition Zposition Zrotation Yrotation Xrotation
													End Site
													{
														OFFSET 0.000000 0.000000 0.100006
													}
												}
											}
										}
									}
									JOINT LeftHandPinky1
									{
										OFFSET 0.173492 4.467224 7.976990
										CHANNELS 6 Xposition Yposition Zposition Zrotation Yrotation Xrotation
										JOINT LeftHandPinky2
										{
											OFFSET 0.000000 0.000000 3.350403
											CHANNELS 6 Xposition Yposition Zposition Zrotation Yrotation Xrotation
											JOINT LeftHandPinky3
											{
												OFFSET 0.000000 0.000000 2.842758
												CHANNELS 6 Xposition Yposition Zposition Zrotation Yrotation Xrotation
												JOINT LeftHandPinky4
												{
													OFFSET 0.000000 0.000000 2.639709
													CHANNELS 6 Xposition Yposition Zposition Zrotation Yrotation Xrotation
													End Site
													{
														OFFSET 0.000000 0.000000 0.100006
													}
												}
											}
										}
									}
									JOINT LeftForeArmEnd
									{
										OFFSET 0.000000 0.000000 0.000000
										CHANNELS 6 Xposition Yposition Zposition Zrotation Yrotation Xrotation
										End Site
										{
											OFFSET 0.000000 0.000000 0.100006
										}
									}
								}
								JOINT LeftArmEnd
								{
									OFFSET 0.000000 0.000000 0.000000
									CHANNELS 6 Xposition Yposition Zposition Zrotation Yrotation Xrotation
									End Site
									{
										OFFSET 0.000000 0.000000 0.100006
									}
								}
							}
						}
					}
				}
			}
		}
	}
	JOINT RightUpLeg
	{
		OFFSET -11.289948 0.000000 0.000000
		CHANNELS 6 Xposition Yposition Zposition Zrotation Yrotation Xrotation
		JOINT RightLeg
		{
			OFFSET 0.000000 0.000000 -38.200329
			CHANNELS 6 Xposition Yposition Zposition Zrotation Yrotation Xrotation
			JOINT RightFoot
			{
				OFFSET 0.000000 0.000000 -39.900856
				CHANNELS 6 Xposition Yposition Zposition Zrotation Yrotation Xrotation
				JOINT RightToeBase
				{
					OFFSET 0.000000 -15.261658 0.000002
					CHANNELS 6 Xposition Yposition Zposition Zrotation Yrotation Xrotation
					JOINT RightToeBaseEnd
					{
						OFFSET 0.000000 -7.370728 0.000000
						CHANNELS 6 Xposition Yposition Zposition Zrotation Yrotation Xrotation
						End Site
						{
							OFFSET 0.000000 0.000000 0.100000
						}
					}
				}
				JOINT RightLegEnd
				{
					OFFSET 0.000000 0.000000 0.000000
					CHANNELS 6 Xposition Yposition Zposition Zrotation Yrotation Xrotation
					End Site
					{
						OFFSET 0.000000 0.000000 0.100000
					}
				}
			}
			JOINT RightUpLegEnd
			{
				OFFSET 0.000000 0.000000 0.000000
				CHANNELS 6 Xposition Yposition Zposition Zrotation Yrotation Xrotation
				End Site
				{
					OFFSET 0.000000 0.000000 0.099998
				}
			}
		}
	}
	JOINT LeftUpLeg
	{
		OFFSET 11.315674 0.000000 0.000000
		CHANNELS 6 Xposition Yposition Zposition Zrotation Yrotation Xrotation
		JOINT LeftLeg
		{
			OFFSET 0.000000 0.000000 -38.200329
			CHANNELS 6 Xposition Yposition Zposition Zrotation Yrotation Xrotation
			JOINT LeftFoot
			{
				OFFSET 0.000000 0.000000 -39.900856
				CHANNELS 6 Xposition Yposition Zposition Zrotation Yrotation Xrotation
				JOINT LeftToeBase
				{
					OFFSET 0.000000 -15.261658 0.000002
					CHANNELS 6 Xposition Yposition Zposition Zrotation Yrotation Xrotation
					JOINT LeftToeBaseEnd
					{
						OFFSET 0.000000 -7.539978 0.000000
						CHANNELS 6 Xposition Yposition Zposition Zrotation Yrotation Xrotation
						End Site
						{
							OFFSET 0.000000 0.000000 0.100000
						}
					}
				}
				JOINT LeftLegEnd
				{
					OFFSET 0.000000 0.000000 0.000000
					CHANNELS 6 Xposition Yposition Zposition Zrotation Yrotation Xrotation
					End Site
					{
						OFFSET 0.000000 0.000000 0.100000
					}
				}
			}
			JOINT LeftUpLegEnd
			{
				OFFSET 0.000000 0.000000 0.000000
				CHANNELS 6 Xposition Yposition Zposition Zrotation Yrotation Xrotation
				End Site
				{
					OFFSET 0.000000 0.000000 0.099998
				}
			}
		}
	}
}
MOTION
Frames: 2
Frame Time: 0.016667
-26.619202 -16.460510 83.222717 4.945388 1.973489 -9.012443 -0.000008 2.080098 8.814228 0.013312 -1.689604 16.726293 0.000011 0.000015 8.844157 -0.059306 -0.130984 10.726923 -0.000002 -0.000027 11.682269 -1.488893 0.205999 9.221356 -0.000009 -0.000018 11.746682 -0.184723 0.272897 3.271385 0.000010 0.000068 17.658264 -1.723962 -7.286782 -12.871348 0.000003 0.000009 5.101511 1.083337 -1.360568 -12.519767 0.000012 0.000011 5.101525 -1.207890 0.776615 -15.706380 -0.000000 -0.000003 11.655105 0.000000 -0.000000 -0.000000 -2.625404 0.000087 11.175210 17.213159 -87.122423 1.394665 0.000015 -0.000015 10.434685 24.742702 -72.153326 -4.958824 -0.000007 -0.000015 29.628386 26.479791 1.099246 6.696983 -0.000053 0.000014 22.857613 5.961415 14.129620 1.519505 -2.867315 -2.944244 3.959518 31.852628 -23.703210 42.324613 0.000046 -0.000008 3.350372 -27.020505 11.066230 -46.082894 -0.000031 0.000008 3.756523 -17.852783 10.075352 -31.394982 -0.000003 -0.000062 3.147325 -0.000003 -0.000001 0.000003 -0.086754 -2.345278 10.030891 -39.755160 -61.602794 33.418476 -0.000021 -0.000063 4.061108 -3.171740 -46.532781 8.526622 -0.000013 -0.000087 3.248882 -3.671742 -46.532798 8.526630 0.000004 0.000007 2.639709 -0.000000 0.000001 -0.000001 0.104042 -0.006835 9.502892 -27.790397 -62.158089 25.982528 -0.000037 -0.000011 4.568716 -0.795463 -45.665303 3.075678 -0.000022 0.000007 3.654978 -1.295372 -45.665224 3.075540 -0.000027 -0.000000 2.741253 -0.000000 0.000000 -0.000001 0.086781 2.267437 8.921684 -13.503603 -68.715958 18.836697 -0.000027 -0.000031 4.061104 0.759204 -48.218007 -3.926295 -0.000007 -0.000086 3.655005 1.756620 -48.218028 -3.920667 -0.000030 -0.000006 2.741228 0.000001 0.000001 -0.000001 -0.173492 4.467144 7.976973 10.256708 -70.673695 3.338684 -0.000008 -0.000048 3.350395 3.145752 -46.673042 -11.892526 -0.000034 -0.000067 2.842781 5.145768 -46.672991 -11.892534 -0.000027 -0.000066 2.639719 0.000001 0.000001 -0.000000 0.000007 0.000004 -0.000004 -0.000001 0.000001 -0.000000 -0.000028 0.000002 -0.000002 -0.000000 0.000000 0.000000 2.625381 0.000095 11.175200 -16.777948 82.231079 -0.252987 -0.000011 0.000023 10.813637 -38.935937 75.822203 -23.289043 -0.000002 0.000037 28.724785 -2.136195 -0.411845 24.233609 0.644279 0.328819 25.716160 -28.915729 -35.071246 -4.398767 2.867323 -2.944336 3.959549 -33.214025 28.542305 35.829315 -0.000038 -0.000015 3.350452 37.342205 -9.381131 -62.704565 -0.000008 -0.000015 3.756481 25.068773 -11.050435 -42.972268 -0.000042 -0.000014 3.099993 0.000002 -0.000000 -0.000000 0.086746 -2.345284 10.030935 -11.975979 97.731128 -25.322696 -0.000011 0.000011 4.061111 -13.453821 68.145849 -20.511299 0.000008 -0.000002 3.248901 -13.953886 68.145829 -20.511376 -0.000040 0.000008 2.639747 -0.000001 -0.000000 -0.000001 -0.104130 -0.006767 9.502953 -47.000697 98.850787 -53.422345 0.000008 -0.000052 4.568754 -4.293058 67.279112 -7.196092 0.000029 -0.000034 3.654982 -4.800762 67.278832 -7.206750 -0.000034 -0.000004 2.741248 -0.000000 -0.000001 -0.000001 -0.086734 2.267447 8.921776 -53.282162 107.990468 -53.192851 -0.000004 -0.000009 4.061119 5.892694 70.205964 9.789336 -0.000006 0.000015 3.655010 6.880135 70.206394 9.777465 -0.000029 -0.000012 2.741220 0.000002 -0.000000 0.000002 0.173492 4.467247 7.976994 -68.539500 114.587147 -61.496913 0.000000 0.000019 3.350464 17.051840 67.594079 28.132501 -0.000008 -0.000034 2.842857 19.050002 67.594079 28.136776 -0.000034 0.000000 2.639734 -0.000000 0.000000 -0.000001 -0.000016 -0.000000 0.000032 0.000001 -0.000000 -0.000000 -0.000010 -0.000015 0.000006 0.000002 -0.000001 -0.000001 -11.289939 -0.000031 -0.000008 -0.277356 -2.764460 -11.570414 -0.000004 0.000021 -38.200333 -0.602124 0.516840 40.639813 -0.000029 -0.000040 -39.900856 -10.737543 4.193304 2.326181 -0.000000 -15.261738 0.000045 1.434184 -0.034762 -14.048247 0.000003 -7.370666 -0.000001 -0.000000 0.000000 -0.000001 -0.000007 -0.000003 0.000001 0.000001 -0.000000 -0.000001 0.000001 0.000001 -0.000003 -0.000000 -0.000000 -0.000001 11.315713 -0.000069 0.000017 -13.565790 -1.279593 -15.509843 -0.000017 0.000021 -38.200333 0.107142 -0.102466 43.719645 0.000036 0.000022 -39.900856 11.206349 -1.059766 3.022722 0.000008 -15.261669 0.000008 -0.398469 -0.333677 -18.560983 -0.000033 -7.539978 0.000000 -0.000000 0.000000 0.000000 -0.000011 0.000060 -0.000002 0.000000 -0.000000 0.000002 0.000026 -0.000002 -0.000002 0.000000 -0.000000 0.000001 
-26.671814 -16.616028 83.926765 5.201390 1.924221 -8.474244 0.000011 2.080066 8.814235 0.027597 -1.765538 16.207376 0.000004 -0.000014 8.844150 -0.038378 -0.100002 10.395557 -0.000000 -0.000012 11.682273 -1.487454 0.246247 8.967014 -0.000015 -0.000020 11.746696 -0.222108 0.355124 3.206220 0.000010 0.000011 17.658260 -1.750919 -7.353309 -12.217912 0.000005 -0.000017 5.101522 0.971550 -1.328831 -12.059968 0.000015 0.000007 5.101497 -1.210037 0.754419 -15.755312 0.000002 0.000000 11.655040 0.000000 -0.000000 0.000000 -2.625376 0.000029 11.175187 16.996140 -87.072290 1.349143 0.000000 -0.000027 10.434729 23.757022 -72.411808 -4.806189 0.000004 -0.000015 29.628405 26.946582 1.097415 6.698940 -0.000057 0.000021 22.857616 6.293599 14.055736 1.597562 -2.867340 -2.944290 3.959549 31.852673 -23.703220 42.324469 -0.000015 -0.000023 3.350410 -27.020551 11.066125 -46.083119 0.000000 -0.000015 3.756489 -17.852672 10.075375 -31.394814 0.000040 -0.000054 3.147339 -0.000002 0.000004 -0.000001 -0.086761 -2.345275 10.030876 -39.872681 -61.679853 32.896783 -0.000034 -0.000078 4.061142 -3.172012 -46.534028 8.527006 0.000006 -0.000073 3.248878 -3.672014 -46.534069 8.526996 -0.000076 0.000011 2.639680 -0.000001 -0.000002 -0.000000 0.104034 -0.006785 9.502914 -27.790797 -62.155527 25.468078 -0.000034 0.000005 4.568716 -0.795810 -45.641711 3.076158 -0.000038 -0.000010 3.654955 -1.295399 -45.641711 3.075579 -0.000063 -0.000003 2.741267 -0.000000 -0.000003 0.000000 0.086758 2.267460 8.921692 -13.444687 -68.655894 18.361321 -0.000013 -0.000037 4.061111 0.754830 -48.196868 -3.922037 0.000003 -0.000072 3.655008 1.754836 -48.196864 -3.922053 -0.000027 -0.000003 2.741215 0.000001 -0.000004 0.000000 -0.173515 4.467134 7.976972 10.270129 -70.583919 2.950004 -0.000023 -0.000055 3.350388 3.145128 -46.670915 -11.891680 -0.000004 -0.000071 2.842812 5.145121 -46.670976 -11.891671 -0.000019 -0.000063 2.639711 0.000001 -0.000000 -0.000000 0.000001 0.000003 -0.000003 -0.000000 0.000002 0.000000 -0.000001 -0.000000 0.000024 -0.000000 -0.000001 0.000000 2.625385 -0.000017 11.175239 -16.424662 82.479534 -0.260419 -0.000015 0.000023 10.813610 -36.441976 76.046049 -21.268210 0.000028 0.000035 28.724779 -2.436610 -0.369244 24.400605 0.644325 0.328827 25.716129 -28.318886 -35.018831 -4.478407 2.867275 -2.944321 3.959549 -33.214004 28.542275 35.829332 -0.000038 0.000000 3.350449 37.342212 -9.381126 -62.704565 -0.000038 -0.000031 3.756569 25.068765 -11.050430 -42.972275 -0.000021 0.000001 3.100010 -0.000000 -0.000000 -0.000002 0.086723 -2.345248 10.030943 -11.754561 97.793371 -24.613782 0.000015 -0.000004 4.061157 -13.452038 68.143110 -20.509834 0.000000 -0.000002 3.248924 -13.952036 68.143097 -20.509820 -0.000030 0.000007 2.639718 -0.000000 -0.000000 -0.000001 -0.104073 -0.006790 9.502977 -46.741341 98.890054 -52.693598 0.000017 -0.000051 4.568769 -4.293775 67.298175 -7.195831 0.000023 -0.000081 3.654972 -4.793770 67.298202 -7.199370 -0.000033 -0.000004 2.741274 -0.000000 0.000001 -0.000003 -0.086735 2.267464 8.921730 -53.310904 107.985605 -52.817877 0.000008 -0.000012 4.061188 5.893532 70.221052 9.789205 0.000015 -0.000026 3.655037 6.885651 70.221366 9.782032 -0.000038 -0.000003 2.741241 -0.000000 -0.000003 0.000001 0.173508 4.467182 7.977016 -68.819593 114.534629 -61.368109 0.000031 0.000027 3.350441 17.013105 67.571417 28.099393 0.000000 0.000015 2.842804 19.012211 67.571471 28.100549 -0.000034 -0.000003 2.639736 -0.000001 0.000003 0.000001 -0.000022 -0.000005 0.000026 0.000001 0.000002 -0.000000 -0.000013 -0.000013 0.000005 0.000002 -0.000001 -0.000001 -11.289934 0.000039 -0.000015 -0.414924 -2.681201 -10.425310 0.000011 0.000034 -38.200333 -0.542252 0.418653 37.669402 -0.000011 -0.000047 -39.900852 -10.642876 4.084486 3.775060 0.000010 -15.261694 0.000027 1.392074 -0.020040 -14.475493 -0.000004 -7.370665 -0.000001 -0.000000 0.000000 0.000000 -0.000000 0.000003 -0.000001 -0.000000 -0.000000 -0.000000 0.000004 0.000065 0.000006 -0.000000 0.000000 0.000001 11.315714 -0.000029 0.000019 -13.850735 -1.305778 -14.468009 0.000035 0.000023 -38.200279 0.165315 -0.143611 40.979547 0.000036 -0.000024 -39.900848 11.237462 -1.250439 3.825600 0.000012 -15.261679 0.000021 -0.380570 -0.355850 -19.043761 -0.000031 -7.539978 -0.000001 0.000000 0.000000 -0.000000 -0.000002 0.000003 -0.000003 -0.000000 -0.000000 0.000002 0.000026 -0.000002 -0.000000 0.000001 0.000000 -0.000001 
